<?xml version="1.0" encoding="utf-8"?>
<!-- Generator: Adobe Illustrator 23.0.1, SVG Export Plug-In . SVG Version: 6.00 Build 0)  -->
<svg version="1.1" id="Шар_1" xmlns="http://www.w3.org/2000/svg" xmlns:xlink="http://www.w3.org/1999/xlink" x="0px" y="0px"
	 viewBox="0 0 292 294" style="enable-background:new 0 0 292 294;" xml:space="preserve">
<style type="text/css">
	.st0{display:none;}
</style>
<g>
	<path class="st0" d="M753.9,8.5c-27,4.4-50.4,15.1-70.9,32.3c-15.6,13.1-26.7,27.4-36.1,46.7c-10.7,21.9-14.5,41.1-13.6,67.7
		c0.4,13.6,1,18.2,3.5,27.8c13.5,52.6,51.6,90.7,104.2,104.2c9.6,2.5,14.2,3.1,27.8,3.5c26.6,0.9,45.8-2.9,67.7-13.6
		c19.2-9.4,33.3-20.3,46.7-36.1c23.3-27.6,35.1-61.8,33.5-97.5c-1-22.7-5.4-39.3-15.8-59.6c-7.5-14.6-16.2-26-28.2-37.6
		c-19.4-18.5-44.8-31.7-70.8-36.8C790.3,7.2,764.9,6.7,753.9,8.5z M794.3,23.5c12.5,1.9,28.9,7.3,40,13.3c8.3,4.5,23.7,15,23.7,16.3
		c0,0.3-1.8,1.1-4,1.8c-5.1,1.5-9.4,5.2-12.8,10.9c-2.3,4-2.7,5.8-2.6,12.2c0.1,9.1,1.9,14.2,10.4,28.5c8.7,14.7,11.2,23,11.2,37
		c0,9-0.6,13.1-3.1,22.5c-4.4,16.7-18.8,58.8-19.5,57C835.3,217.2,793,91.4,793,90.4c0-1.1,1.9-1.4,8-1.4c7.5,0,8-0.1,8.6-2.4
		c0.3-1.3,0.4-3.8,0.2-5.5l-0.3-3.3h-38h-38l-0.3,3.3c-0.2,1.7-0.1,4.2,0.2,5.5c0.6,2.3,1,2.4,9.1,2.4c7,0,8.6,0.3,9.4,1.8
		c0.5,0.9,5.1,13.1,10.1,26.9l9.2,25.2l-14.1,42.2c-7.7,23.3-14.3,41.6-14.6,40.8C738.9,216.1,697,91.5,697,90.5
		c0-1.1,2.1-1.5,8.8-1.7l8.7-0.3l0.3-3.7c0.6-7.3,1-7.2-23.2-6.9C679.7,78,670,77.8,670,77.4c0-3.6,22.9-26.6,33.7-33.7
		c15.2-10.1,35.8-18.1,52.9-20.6C766.1,21.7,783.7,21.9,794.3,23.5z M894.2,105.4c4.7,12.7,6.8,23.8,7.4,38.6
		c1.2,27.9-6,53.2-21.9,77c-6.2,9.4-23.9,27.1-33.2,33.2c-3.8,2.6-7.1,4.5-7.2,4.4c-0.2-0.2,8.4-25.1,19.2-55.4
		c25.7-73,28.3-81.6,30.1-101.6C889.4,92.7,889.6,92.8,894.2,105.4z M688,181.4c16,43.9,28.9,80,28.6,80.3
		c-0.9,0.9-13.5-7.2-22.4-14.3c-22.6-18.1-38.5-44.9-44.3-74.7c-2.4-12.1-2.5-32.8-0.4-45.1c1.9-10.6,7.4-28.1,8.5-27
		C658.4,101.1,671.9,137.4,688,181.4z M797.3,214.2c10.9,29.8,19.4,54.5,18.9,55c-0.4,0.4-5.3,2-10.8,3.5
		c-9.1,2.4-11.6,2.7-29.4,2.7c-15.7,0.1-21.1-0.3-27.6-1.8c-4.5-1-8.6-2.1-9.2-2.5c-0.7-0.4,5.9-20.6,18.1-55.9
		c10.6-30.3,19.4-55.2,19.7-55.2S786.4,184.4,797.3,214.2z"/>
	<path d="M89,13c-27.6,1.8-44,8.7-59,24.7C17.5,51.1,11.7,66.9,10,92.3c-1.2,17.8-1.2,95.6,0,113.8c0.6,8.1,1.9,18.2,3,22.5
		c5.3,21.1,18.9,38.3,37.5,47.5C67.8,284.6,81,286,146,286c64.7,0,77.8-1.4,95.9-10.1c7.1-3.5,10.2-5.7,17.7-13.3
		c15.7-15.8,20.6-29.3,22.5-61.6c1.4-22.7,0.6-110.1-1.1-121c-1.6-10.7-6.7-25.2-11.2-32.3c-11.7-18.3-30.7-30-54.8-33.7
		C205.6,12.6,108.1,11.8,89,13z M215.3,42.3c10.3,2.4,17.1,6,23.7,12.3c7,6.7,11.1,14.2,13.7,25.2c1.6,7,1.8,13.4,1.8,69.7
		c0,67.6-0.1,68.3-6,81.3c-3.3,7.2-12.4,16.5-19.7,20.1c-12.8,6.4-14.8,6.6-82.8,6.6s-70-0.2-82.8-6.6c-7.3-3.6-16.4-12.9-19.7-20.1
		c-6-13-6-13.7-6-81.3c0-68.6,0.1-70.5,6.6-83.3c3.2-6.6,12.2-15.8,18.5-19c5.8-3,14.8-5.4,23.4-6.2c4.1-0.5,33.4-0.7,65-0.6
		C199.9,40.7,209.5,40.9,215.3,42.3z"/>
	<path d="M211.2,61.7c-4.4,2.1-9.4,9.5-9.9,14.7c-1,9.5,7.9,18.3,17.5,17.3c5-0.5,11.4-4.6,14.2-9.2c2.9-4.8,2.7-13-0.4-17.6
		C228.2,60.4,218.5,58.1,211.2,61.7z"/>
	<path d="M134,79.7c-15.4,2.5-32.9,12.9-42.5,25.1c-22.7,28.8-20.6,68.2,5,93.7c25.7,25.7,66.6,27.6,94.5,4.4
		c11.4-9.5,20.5-24.6,23.6-38.9c2.2-10.2,1.4-27-1.6-36c-10.1-30.1-36.8-49.3-67.7-48.9C140.5,79.2,135.4,79.5,134,79.7z
		 M165.2,109.2c9.2,4.6,16.7,12.2,21.1,21.5c3,6.4,3.2,7.4,3.2,18.3s-0.2,11.9-3.2,18.3c-4.4,9.3-11.9,16.9-21.2,21.5
		c-7.3,3.6-7.7,3.7-19.1,3.7c-11.4,0-11.8-0.1-19.1-3.7c-9.3-4.6-16.8-12.2-21.2-21.5c-3-6.4-3.2-7.4-3.2-18.3s0.2-11.9,3.2-18.2
		c5.4-11.4,14.6-19.7,26.8-24.1c3.8-1.3,7.4-1.7,15.1-1.5C156.9,105.5,158.2,105.8,165.2,109.2z"/>
	<path class="st0" d="M968,22.8c-1.9,0.9-4.5,3.2-5.7,5.1l-2.3,3.4v122.2v122.2l2.3,3.4c4.8,7.2,1.8,6.9,74,6.9h64.7v-52v-51.9
		h-16.5h-16.6l-0.2-19l-0.2-19.1h16.6h16.7l0.5-20.8c0.3-15.7,0.9-22,2.2-26.2c5.3-17,14.9-26.5,32-31.6c4.8-1.5,9.2-1.8,21.9-1.7
		c8.7,0.1,17.6,0.5,19.7,0.8l3.9,0.7v16.3v16.2l-13.4,0.5c-12.2,0.4-13.7,0.7-17.8,3.1c-7.3,4.3-8.3,7.3-8.3,26.2v16l19.3,0.3
		l19.3,0.2l-0.5,2.8c-0.3,1.5-1.5,9.9-2.6,18.6c-1.1,8.7-2.1,16.1-2.4,16.3c-0.2,0.2-7.7,0.5-16.7,0.6l-16.4,0.2l-0.3,49.8
		c-0.1,33.2,0.1,50.4,0.8,51.7c1,1.9,2.4,2,36.1,2c33.3,0,35.2-0.1,39-2.1c2.9-1.4,4.6-3.2,6-6.2c1.8-4.1,1.9-8.4,1.9-124.2V33.4
		l-2.2-4.4c-4.5-8.7,6.7-8-130.3-8C979.3,21,971.3,21.1,968,22.8z"/>
	<path class="st0" d="M505.5,30.9c-18.9,5.4-34,19.7-41.3,38.9c-2.3,5.9-2.6,8.2-2.6,20.1l-0.1,13.4l-7.7-0.6
		c-18.5-1.5-39.3-7.4-58.3-16.7c-20.4-10-36-21.8-50.8-38.3c-3.8-4.3-7.2-7.7-7.7-7.7c-0.4,0-1.7,2.2-2.9,4.9
		c-7,16.4-6.9,36,0.3,51.6c3.2,6.9,10.6,16.4,16.3,21l4.8,3.8l-5.2-0.6c-2.9-0.3-8.1-1.8-11.5-3.2c-3.5-1.5-7.4-2.9-8.7-3.2
		c-2.4-0.6-2.4-0.6-1.7,6c2.4,23.6,19.5,44.9,41.4,51.7c3.1,1,5,2,4.3,2.4c-0.6,0.4-6.1,0.6-12.1,0.5s-11.3,0-11.6,0.4
		c-1,1,1.6,7.3,5.6,13.6c10.1,15.5,25.7,25.6,43.5,27.9l6,0.8l-5.5,3.6c-20.9,13.5-47.2,20.8-70.7,19.5c-8.3-0.5-10.4-0.3-11.4,0.9
		c-1.6,1.9-2,1.6,13.1,9.3c22.8,11.7,45.7,17.7,71.5,18.7c59,2.5,109.9-21.2,144.7-67.1c21.9-29,35.7-69.5,35.8-105.3
		c0-5,0.4-9.2,0.9-9.2c2.8,0,29.3-28.1,27.9-29.5c-0.2-0.3-2.7,0.4-5.5,1.5c-5.1,1.9-17.9,5.3-24.3,6.4l-3.5,0.6l3-2.2
		c6.9-4.9,16.1-15.5,19.7-22.8c2.1-4.1,3.6-7.6,3.4-7.8c-0.2-0.2-2.7,0.8-5.5,2.2c-7.6,3.9-14.6,6.6-24,9.2l-8.4,2.3l-5.1-4.5
		c-6-5.3-16.6-10.7-25.1-12.9C528.5,28.5,513.2,28.7,505.5,30.9z"/>
</g>
</svg>
